STARTFONT 2.1
COMMENT GFtoPK 2.3 output from METAFONT output 1992.08.20:1658
COMMENT Checksum 4bf16079
FONT -mf-cmr10-----30-10-300-300--190--
SIZE 10 300 300
FONTBOUNDINGBOX 44 42 -3 -11
STARTPROPERTIES 3
FONT_ASCENT 30
FONT_DESCENT 11
DEFAULT_CHAR 32
ENDPROPERTIES
CHARS 128
STARTCHAR Gamma
ENCODING 0
SWIDTH 622 0
DWIDTH 26 0
BBX 21 28 0 0
BITMAP
fffff0
0f00f0
0f0030
0f0010
0f0010
0f0018
0f0008
0f0008
0f0008
0f0000
0f0000
0f0000
0f0000
0f0000
0f0000
0f0000
0f0000
0f0000
0f0000
0f0000
0f0000
0f0000
0f0000
0f0000
0f0000
0f0000
0f8000
fff800
ENDCHAR
STARTCHAR Delta
ENCODING 1
SWIDTH 838 0
DWIDTH 35 0
BBX 30 29 0 0
BITMAP
00030000
00030000
00078000
00078000
000fc000
000bc000
0013e000
0011e000
0021f000
0020f000
0040f800
00407800
00807c00
00803c00
01003e00
01001e00
02001f00
02000f00
04000f80
04000780
080007c0
080003c0
100003e0
100001e0
200000f0
200000f0
7ffffff8
fffffffc
fffffffc
ENDCHAR
STARTCHAR Theta
ENCODING 2
SWIDTH 766 0
DWIDTH 32 0
BBX 27 30 0 -1
BITMAP
003f8000
00e0e000
03803800
07001c00
0e000e00
1c000700
3c000780
38000380
780003c0
780003c0
700001c0
f00001e0
f10011e0
f1fff1e0
f1fff1e0
f1fff1e0
f10011e0
f00001e0
f00001e0
700001c0
780003c0
780003c0
38000380
3c000780
1c000700
0e000e00
07001c00
03803800
00e0e000
003f8000
ENDCHAR
STARTCHAR Lamdba
ENCODING 3
SWIDTH 694 0
DWIDTH 29 0
BBX 26 29 0 0
BITMAP
000c0000
000c0000
000c0000
001e0000
001e0000
001e0000
003f0000
002f0000
002f0000
004f8000
00478000
00478000
00c7c000
0083c000
0083c000
0183e000
0101e000
0101e000
0101e000
0200f000
0200f000
0200f000
04007800
04007800
04007800
08003c00
0c003c00
1e007e00
ff83ffc0
ENDCHAR
STARTCHAR Xi
ENCODING 4
SWIDTH 670 0
DWIDTH 28 0
BBX 23 28 0 0
BITMAP
fffffe
fffffe
fffffe
800002
800002
800002
800002
000000
000000
000000
080020
080020
0fffe0
0fffe0
0fffe0
080020
080020
000000
000000
000000
000000
800002
800002
800002
800002
fffffe
fffffe
fffffe
ENDCHAR
STARTCHAR Pi
ENCODING 5
SWIDTH 742 0
DWIDTH 31 0
BBX 26 28 0 0
BITMAP
ffffffc0
0f003c00
0f003c00
0f003c00
0f003c00
0f003c00
0f003c00
0f003c00
0f003c00
0f003c00
0f003c00
0f003c00
0f003c00
0f003c00
0f003c00
0f003c00
0f003c00
0f003c00
0f003c00
0f003c00
0f003c00
0f003c00
0f003c00
0f003c00
0f003c00
0f003c00
0f003c00
fff3ffc0
ENDCHAR
STARTCHAR Sigma
ENCODING 6
SWIDTH 718 0
DWIDTH 30 0
BBX 25 28 0 0
BITMAP
ffffff00
78001f00
7c000700
3e000300
1e000100
1f000180
0f800080
07800080
07c00080
03e00000
01e00000
01f00000
00f00000
00780000
00780000
00300000
00200000
00400000
00800080
01000080
02000080
02000180
04000180
08000300
10000700
20001f00
7fffff00
ffffff00
ENDCHAR
STARTCHAR Upsilon
ENCODING 7
SWIDTH 766 0
DWIDTH 32 0
BBX 27 29 0 0
BITMAP
1f001f00
3fc03f80
7fe07fc0
60e0f0c0
c071c060
8039c020
80398020
001b8000
001f8000
001f0000
000f0000
000f0000
000f0000
000f0000
000f0000
000f0000
000f0000
000f0000
000f0000
000f0000
000f0000
000f0000
000f0000
000f0000
000f0000
000f0000
000f0000
001f8000
01fff800
ENDCHAR
STARTCHAR Phi
ENCODING 8
SWIDTH 718 0
DWIDTH 30 0
BBX 25 28 0 0
BITMAP
03fff000
003f0000
001e0000
001e0000
001e0000
00ff8000
039ee000
0e1e3800
1c1e1c00
381e0e00
781e0f00
f01e0780
f01e0780
f01e0780
f01e0780
f01e0780
f01e0780
781e0f00
381e0e00
1c1e1c00
0e1e3800
039ee000
00ff8000
001e0000
001e0000
001e0000
003f0000
03fff000
ENDCHAR
STARTCHAR Psi
ENCODING 9
SWIDTH 766 0
DWIDTH 32 0
BBX 27 28 0 0
BITMAP
01fff800
001f8000
000f0000
000f0000
000f0000
f80f03e0
3c0f0780
3c0f0780
1e0f0f00
1e0f0f00
1e0f0f00
1e0f0f00
1e0f0f00
1e0f0f00
1e0f0f00
0e0f0f00
0f0f1e00
0f0f1e00
070f1c00
038f3c00
01cf3800
00efe000
003f8000
000f0000
000f0000
000f0000
001f8000
01fff800
ENDCHAR
STARTCHAR Omega
ENCODING 10
SWIDTH 718 0
DWIDTH 30 0
BBX 25 29 0 0
BITMAP
007f0000
03c1e000
07007000
1c001c00
3c001e00
38000e00
78000f00
70000700
f0000780
f0000780
f0000780
f0000780
f0000780
70000700
78000f00
78000f00
38000e00
1c001c00
1c001c00
0e003800
06003000
06003000
83006080
81004080
81004080
4180c100
7f80ff00
7f80ff00
7f80ff00
ENDCHAR
STARTCHAR arrowup
ENCODING 11
SWIDTH 575 0
DWIDTH 24 0
BBX 26 29 0 0
BITMAP
007e1f00
01c1b180
0303e3c0
0703c3c0
0e03c180
0e01c000
0e01c000
0e01c000
0e01c000
0e01c000
0e01c000
fffffc00
0e01c000
0e01c000
0e01c000
0e01c000
0e01c000
0e01c000
0e01c000
0e01c000
0e01c000
0e01c000
0e01c000
0e01c000
0e01c000
0e01c000
0e01c000
0e01c000
7f87fc00
ENDCHAR
STARTCHAR arrowdown
ENCODING 12
SWIDTH 551 0
DWIDTH 23 0
BBX 21 29 0 0
BITMAP
007e00
01c180
030180
0703c0
0e03c0
0e0180
0e0000
0e0000
0e0000
0e0000
0e0000
ffffc0
0e01c0
0e01c0
0e01c0
0e01c0
0e01c0
0e01c0
0e01c0
0e01c0
0e01c0
0e01c0
0e01c0
0e01c0
0e01c0
0e01c0
0e01c0
0e01c0
7f87f8
ENDCHAR
STARTCHAR quotesingle
ENCODING 13
SWIDTH 551 0
DWIDTH 23 0
BBX 21 29 0 0
BITMAP
007fc0
01c1c0
0303c0
0703c0
0e01c0
0e01c0
0e01c0
0e01c0
0e01c0
0e01c0
0e01c0
ffffc0
0e01c0
0e01c0
0e01c0
0e01c0
0e01c0
0e01c0
0e01c0
0e01c0
0e01c0
0e01c0
0e01c0
0e01c0
0e01c0
0e01c0
0e01c0
0e01c0
7fcff8
ENDCHAR
STARTCHAR exclamdown
ENCODING 14
SWIDTH 838 0
DWIDTH 35 0
BBX 33 29 0 0
BITMAP
003f07e000
01c09c1800
0380f01800
0701f03c00
0e01e03c00
0e00e01800
0e00e00000
0e00e00000
0e00e00000
0e00e00000
0e00e00000
fffffffc00
0e00e01c00
0e00e01c00
0e00e01c00
0e00e01c00
0e00e01c00
0e00e01c00
0e00e01c00
0e00e01c00
0e00e01c00
0e00e01c00
0e00e01c00
0e00e01c00
0e00e01c00
0e00e01c00
0e00e01c00
0e00e01c00
7fc7fcff80
ENDCHAR
STARTCHAR questiondown
ENCODING 15
SWIDTH 838 0
DWIDTH 35 0
BBX 33 29 0 0
BITMAP
003f07fc00
01c0dc1c00
0381f03c00
0701f03c00
0e01e01c00
0e00e01c00
0e00e01c00
0e00e01c00
0e00e01c00
0e00e01c00
0e00e01c00
fffffffc00
0e00e01c00
0e00e01c00
0e00e01c00
0e00e01c00
0e00e01c00
0e00e01c00
0e00e01c00
0e00e01c00
0e00e01c00
0e00e01c00
0e00e01c00
0e00e01c00
0e00e01c00
0e00e01c00
0e00e01c00
0e00e01c00
7fc7fcff80
ENDCHAR
STARTCHAR dotlessi
ENCODING 16
SWIDTH 287 0
DWIDTH 12 0
BBX 9 18 0 0
BITMAP
fc00
1c00
1c00
1c00
1c00
1c00
1c00
1c00
1c00
1c00
1c00
1c00
1c00
1c00
1c00
1c00
1c00
ff80
ENDCHAR
STARTCHAR dotlessj
ENCODING 17
SWIDTH 311 0
DWIDTH 13 0
BBX 11 26 0 -8
BITMAP
0fe0
00e0
00e0
00e0
00e0
00e0
00e0
00e0
00e0
00e0
00e0
00e0
00e0
00e0
00e0
00e0
00e0
00e0
00e0
00e0
00e0
60e0
f0c0
f1c0
6180
3e00
ENDCHAR
STARTCHAR grave
ENCODING 18
SWIDTH 503 0
DWIDTH 21 0
BBX 6 7 0 22
BITMAP
e0
e0
f0
70
38
0c
04
ENDCHAR
STARTCHAR acute
ENCODING 19
SWIDTH 503 0
DWIDTH 21 0
BBX 6 7 0 22
BITMAP
1c
1c
3c
38
70
c0
80
ENDCHAR
STARTCHAR caron
ENCODING 20
SWIDTH 503 0
DWIDTH 21 0
BBX 10 4 0 22
BITMAP
c0c0
6180
3f00
0c00
ENDCHAR
STARTCHAR breve
ENCODING 21
SWIDTH 503 0
DWIDTH 21 0
BBX 12 7 0 22
BITMAP
8010
8010
c030
4020
70e0
3fc0
0f00
ENDCHAR
STARTCHAR macron
ENCODING 22
SWIDTH 503 0
DWIDTH 21 0
BBX 14 1 0 24
BITMAP
fffc
ENDCHAR
STARTCHAR ring
ENCODING 23
SWIDTH 742 0
DWIDTH 31 0
BBX 8 7 0 23
BITMAP
3c
42
81
81
81
42
3c
ENDCHAR
STARTCHAR cedilla
ENCODING 24
SWIDTH 431 0
DWIDTH 18 0
BBX 10 7 0 -8
BITMAP
1c00
1e00
0780
03c0
01c0
0380
ff00
ENDCHAR
STARTCHAR germandbls
ENCODING 25
SWIDTH 503 0
DWIDTH 21 0
BBX 18 29 0 0
BITMAP
01f800
070e00
0e0700
0c0300
1c0380
1c0380
1c0380
1c0380
1c0700
1c0600
1c1c00
fcf000
1c1800
1c0c00
1c0600
1c0300
1c0380
1c0380
1c01c0
1c01c0
1c01c0
1c01c0
1c01c0
1c01c0
1c0180
1ce380
1ce300
1ce600
fc7c00
ENDCHAR
STARTCHAR ae
ENCODING 26
SWIDTH 718 0
DWIDTH 30 0
BBX 26 18 0 0
BITMAP
1fc07c00
70718300
783b0180
781e0180
301e00c0
001c00c0
001c00c0
01ffffc0
0f1c0000
381c0000
701c0000
601c0000
e01c0000
e01e0040
e01e0040
70330080
3861c300
1f807c00
ENDCHAR
STARTCHAR oe
ENCODING 27
SWIDTH 766 0
DWIDTH 32 0
BBX 29 18 0 0
BITMAP
03e00f80
0c183060
180c6030
3006c030
7007c018
60038018
e0038018
e003fff8
e0038000
e0038000
e0038000
e0038000
60038000
7007c008
3006c008
180c6010
0c183860
03e00f80
ENDCHAR
STARTCHAR oslash
ENCODING 28
SWIDTH 503 0
DWIDTH 21 0
BBX 18 26 0 -4
BITMAP
000080
000100
000300
000200
03f400
0e1c00
180e00
300b00
701380
603180
e021c0
e041c0
e041c0
e081c0
e081c0
e101c0
630180
720380
340300
1c0600
0e1c00
0bf000
100000
300000
200000
400000
ENDCHAR
STARTCHAR AE
ENCODING 29
SWIDTH 886 0
DWIDTH 37 0
BBX 34 28 0 0
BITMAP
007fffff00
0005f00f00
0004f00300
0008f00100
0008f00100
0008f00180
0010f00080
0010f00080
0010f00080
0020f02000
0020f02000
0020f02000
0040f02000
0040f06000
00ffffe000
0080f06000
0080f02000
0100f02000
0100f02040
0100f02040
0200f00080
0200f00080
0200f00080
0400f00080
0400f00180
0c00f00300
1e00f00f00
ff87ffff00
ENDCHAR
STARTCHAR OE
ENCODING 30
SWIDTH 1006 0
DWIDTH 42 0
BBX 37 30 0 -1
BITMAP
003f000000
00e0ffffe0
03807801e0
0700780060
0e00380020
1c00380020
3c00380030
3800380010
7800380010
7800380210
7000380200
f000380200
f000380600
f000380e00
f0003ffe00
f000380e00
f000380600
f000380200
f000380200
7800380208
7800380008
7800380010
3c00380010
3c00380010
1e00380030
0e00380030
0700780060
03807801e0
00e0ffffe0
003f000000
ENDCHAR
STARTCHAR Oslash
ENCODING 31
SWIDTH 766 0
DWIDTH 32 0
BBX 27 32 0 -2
BITMAP
00000100
003f8300
00e0e200
03803c00
07001c00
0e000e00
1c001700
38003380
38002380
780043c0
700041c0
700081c0
f00101e0
f00101e0
f00201e0
f00401e0
f00401e0
f00801e0
f01001e0
f01001e0
702001c0
704001c0
784003c0
38800380
39800380
1d000700
0e000e00
07001c00
07803800
08e0e000
183f8000
10000000
ENDCHAR
STARTCHAR space
ENCODING 32
SWIDTH 287 0
DWIDTH 32 0
BBX 24 0 0 12
BITMAP
ENDCHAR
STARTCHAR exclam
ENCODING 33
SWIDTH 287 0
DWIDTH 12 0
BBX 4 30 0 0
BITMAP
60
f0
f0
f0
f0
f0
f0
f0
60
60
60
60
60
60
60
60
60
60
60
60
60
00
00
00
00
00
60
f0
f0
60
ENDCHAR
STARTCHAR quotedblright
ENCODING 34
SWIDTH 503 0
DWIDTH 21 0
BBX 13 12 0 17
BITMAP
6060
f0f0
f8f8
6868
0808
0808
0808
1010
1010
2020
4040
8080
ENDCHAR
STARTCHAR numbersign
ENCODING 35
SWIDTH 838 0
DWIDTH 35 0
BBX 30 37 0 -8
BITMAP
00030180
00030180
00030180
00060300
00060300
00060300
00060300
00060300
000c0600
000c0600
000c0600
000c0600
00180c00
7ffffff8
fffffffc
00301800
00301800
00301800
00301800
00603000
00603000
00603000
00603000
fffffffc
7ffffff8
00c06000
0180c000
0180c000
0180c000
0180c000
03018000
03018000
03018000
03018000
06030000
06030000
06030000
ENDCHAR
STARTCHAR dollar
ENCODING 36
SWIDTH 503 0
DWIDTH 21 0
BBX 16 33 0 -2
BITMAP
0080
0080
07e0
1898
3084
6082
4081
c087
c08f
c08f
c086
e080
f080
7e80
3fc0
1ff0
0ff8
03fc
00be
008e
0087
6087
f083
f083
e083
8082
4082
4084
2088
1890
07e0
0080
0080
ENDCHAR
STARTCHAR percent
ENCODING 37
SWIDTH 838 0
DWIDTH 35 0
BBX 30 33 0 -2
BITMAP
0f0000c0
188000c0
30600380
70380700
6027fb00
e0100600
e0100c00
e0100c00
e0101800
e0101800
e0103000
e0106000
60206000
7020c000
30418000
18818000
0f0303c0
00060620
00060c10
000c1c08
00181808
00183804
00303804
00603804
00603804
00c03804
00c03804
01803804
03001808
03001c08
06000c10
0c000620
040003c0
ENDCHAR
STARTCHAR ampersand
ENCODING 38
SWIDTH 766 0
DWIDTH 32 0
BBX 27 31 0 -1
BITMAP
00e00000
01900000
03080000
03080000
07080000
07080000
07080000
07080000
07100000
07100000
07200000
07400000
03c03fe0
03800f00
03800600
03800400
05c00400
09c00800
10e01000
30e01000
60702000
60702000
e0384000
e03c4000
e01c8000
e00f0020
e0070020
70078040
3009c040
1830e180
07c03e00
ENDCHAR
STARTCHAR quoteright
ENCODING 39
SWIDTH 287 0
DWIDTH 12 0
BBX 5 12 0 17
BITMAP
60
f0
f8
68
08
08
08
10
10
20
40
80
ENDCHAR
STARTCHAR parenleft
ENCODING 40
SWIDTH 383 0
DWIDTH 16 0
BBX 10 42 0 -11
BITMAP
0040
0080
0100
0200
0600
0c00
0c00
1800
1800
3000
3000
7000
6000
6000
6000
e000
e000
e000
e000
e000
e000
e000
e000
e000
e000
e000
e000
6000
6000
6000
7000
3000
3000
1800
1800
0c00
0c00
0600
0200
0100
0080
0040
ENDCHAR
STARTCHAR parenright
ENCODING 41
SWIDTH 383 0
DWIDTH 16 0
BBX 10 42 0 -11
BITMAP
8000
4000
2000
1000
1800
0c00
0c00
0600
0600
0300
0300
0380
0180
0180
0180
01c0
01c0
01c0
01c0
01c0
01c0
01c0
01c0
01c0
01c0
01c0
01c0
0180
0180
0180
0380
0300
0300
0600
0600
0c00
0c00
1800
1000
2000
4000
8000
ENDCHAR
STARTCHAR asterisk
ENCODING 42
SWIDTH 503 0
DWIDTH 21 0
BBX 16 18 0 13
BITMAP
0180
0180
0180
0180
4182
f18f
399c
0ff0
03c0
03c0
0ff0
399c
f18f
4182
0180
0180
0180
0180
ENDCHAR
STARTCHAR plus
ENCODING 43
SWIDTH 766 0
DWIDTH 32 0
BBX 27 28 0 -4
BITMAP
00060000
00060000
00060000
00060000
00060000
00060000
00060000
00060000
00060000
00060000
00060000
00060000
00060000
ffffffe0
ffffffe0
00060000
00060000
00060000
00060000
00060000
00060000
00060000
00060000
00060000
00060000
00060000
00060000
00060000
ENDCHAR
STARTCHAR comma
ENCODING 44
SWIDTH 287 0
DWIDTH 12 0
BBX 4 12 0 -8
BITMAP
60
f0
f0
70
10
10
10
10
20
20
40
80
ENDCHAR
STARTCHAR hyphen
ENCODING 45
SWIDTH 335 0
DWIDTH 14 0
BBX 11 2 0 8
BITMAP
ffe0
ffe0
ENDCHAR
STARTCHAR period
ENCODING 46
SWIDTH 287 0
DWIDTH 12 0
BBX 4 4 0 0
BITMAP
60
f0
f0
60
ENDCHAR
STARTCHAR slash
ENCODING 47
SWIDTH 503 0
DWIDTH 21 0
BBX 16 41 0 -10
BITMAP
0001
0003
0006
0006
0006
000c
000c
000c
0018
0018
0018
0030
0030
0030
0060
0060
00c0
00c0
00c0
0180
0180
0180
0300
0300
0300
0600
0600
0c00
0c00
0c00
1800
1800
1800
3000
3000
3000
6000
6000
6000
c000
c000
ENDCHAR
STARTCHAR 0
ENCODING 48
SWIDTH 503 0
DWIDTH 21 0
BBX 16 29 0 -1
BITMAP
03c0
0c30
1818
300c
300c
700e
6006
6006
e007
e007
e007
e007
e007
e007
e007
e007
e007
e007
e007
e007
e007
6006
6006
700e
300c
300c
1818
0c30
07e0
ENDCHAR
STARTCHAR 1
ENCODING 49
SWIDTH 503 0
DWIDTH 21 0
BBX 13 28 0 0
BITMAP
0300
0700
3f00
c700
0700
0700
0700
0700
0700
0700
0700
0700
0700
0700
0700
0700
0700
0700
0700
0700
0700
0700
0700
0700
0700
0700
0f80
fff8
ENDCHAR
STARTCHAR 2
ENCODING 50
SWIDTH 503 0
DWIDTH 21 0
BBX 16 28 0 0
BITMAP
07c0
1830
201c
400c
400e
f00f
f80f
f807
f807
7007
000f
000e
000e
001c
001c
0038
0070
0060
00c0
0180
0300
0601
0c01
1801
1002
3ffe
7ffe
fffe
ENDCHAR
STARTCHAR 3
ENCODING 51
SWIDTH 503 0
DWIDTH 21 0
BBX 16 29 0 -1
BITMAP
07e0
1830
201c
201c
781e
780e
781e
381e
001c
001c
0018
0030
0060
07e0
0030
001c
001c
000e
000f
000f
700f
f80f
f80f
f80f
f00e
401c
201c
1830
07e0
ENDCHAR
STARTCHAR 4
ENCODING 52
SWIDTH 503 0
DWIDTH 21 0
BBX 18 28 0 0
BITMAP
000c00
000c00
001c00
003c00
003c00
005c00
00dc00
009c00
011c00
031c00
021c00
041c00
0c1c00
081c00
101c00
301c00
201c00
401c00
c01c00
ffffc0
001c00
001c00
001c00
001c00
001c00
001c00
001c00
01ffc0
ENDCHAR
STARTCHAR 5
ENCODING 53
SWIDTH 503 0
DWIDTH 21 0
BBX 16 29 0 -1
BITMAP
300c
3ff8
3ff0
3fc0
2000
2000
2000
2000
2000
2000
23e0
2430
2818
301c
200e
000e
000f
000f
000f
600f
f00f
f00f
f00f
800e
401e
401c
2038
1870
07c0
ENDCHAR
STARTCHAR 6
ENCODING 54
SWIDTH 503 0
DWIDTH 21 0
BBX 16 29 0 -1
BITMAP
00f0
030c
0604
0c0e
181e
301e
300c
7000
7000
6000
e3e0
e430
e818
f00c
f00e
e006
e007
e007
e007
e007
e007
6007
6007
7006
300e
300c
1818
0c30
03e0
ENDCHAR
STARTCHAR 7
ENCODING 55
SWIDTH 503 0
DWIDTH 21 0
BBX 17 29 0 -1
BITMAP
400000
7fff80
7fff00
7fff00
400200
800400
800400
800800
001000
001000
002000
006000
004000
00c000
00c000
01c000
018000
018000
038000
038000
038000
038000
078000
078000
078000
078000
078000
078000
030000
ENDCHAR
STARTCHAR 8
ENCODING 56
SWIDTH 503 0
DWIDTH 21 0
BBX 16 29 0 -1
BITMAP
03e0
0c30
1008
200c
2006
6006
6006
6006
7006
780c
3e08
3fb0
1fe0
07f0
07f8
18fc
307e
601e
600f
c007
c003
c003
c003
c003
6002
6004
300c
1c10
07e0
ENDCHAR
STARTCHAR 9
ENCODING 57
SWIDTH 503 0
DWIDTH 21 0
BBX 16 29 0 -1
BITMAP
03c0
0c30
1818
300c
700c
600e
e006
e006
e007
e007
e007
e007
e007
6007
700f
300f
1817
0c27
07c7
0006
0006
000e
300c
780c
7818
7010
2030
30c0
0f80
ENDCHAR
STARTCHAR colon
ENCODING 58
SWIDTH 287 0
DWIDTH 12 0
BBX 4 18 0 0
BITMAP
60
f0
f0
60
00
00
00
00
00
00
00
00
00
00
60
f0
f0
60
ENDCHAR
STARTCHAR semicolon
ENCODING 59
SWIDTH 287 0
DWIDTH 12 0
BBX 4 26 0 -8
BITMAP
60
f0
f0
60
00
00
00
00
00
00
00
00
00
00
60
f0
f0
70
10
10
10
10
20
20
40
80
ENDCHAR
STARTCHAR less
ENCODING 60
SWIDTH 766 0
DWIDTH 32 0
BBX 25 25 0 -2
BITMAP
00000180
00000780
00001f00
00007c00
0001f000
0007c000
001f0000
007c0000
01f00000
07c00000
1f000000
7c000000
f0000000
f8000000
3e000000
0f800000
03e00000
00f80000
003e0000
000f8000
0003e000
0000f800
00003e00
00000f80
00000380
ENDCHAR
STARTCHAR equal
ENCODING 61
SWIDTH 766 0
DWIDTH 32 0
BBX 27 12 0 4
BITMAP
7fffffc0
ffffffe0
00000000
00000000
00000000
00000000
00000000
00000000
00000000
00000000
ffffffe0
7fffffc0
ENDCHAR
STARTCHAR greater
ENCODING 62
SWIDTH 766 0
DWIDTH 32 0
BBX 25 25 0 -2
BITMAP
c0000000
f0000000
7c000000
1f000000
07c00000
01f00000
007c0000
001f0000
0007c000
0001f000
00007c00
00001f00
00000780
00000f80
00003e00
0000f800
0003e000
000f8000
003e0000
00f80000
03e00000
0f800000
3e000000
f8000000
e0000000
ENDCHAR
STARTCHAR question
ENCODING 63
SWIDTH 479 0
DWIDTH 20 0
BBX 15 29 0 0
BITMAP
0fe0
3038
401c
e00e
f00e
f00e
f00e
000c
001c
0030
0060
00c0
0080
0180
0100
0100
0100
0100
0100
0100
0000
0000
0000
0000
0000
0300
0780
0780
0300
ENDCHAR
STARTCHAR at
ENCODING 64
SWIDTH 766 0
DWIDTH 32 0
BBX 27 29 0 0
BITMAP
003f8000
00c06000
03001800
04000400
08000200
10000100
201f0080
20708080
40e04040
40c03840
41c03840
81803820
83803820
83803820
83803820
83803820
83803820
81803820
41c03820
40c03840
40e07840
20709880
201f0f00
10000000
08000000
04000000
030001e0
00c01f80
003ff000
ENDCHAR
STARTCHAR A
ENCODING 65
SWIDTH 742 0
DWIDTH 31 0
BBX 28 29 0 0
BITMAP
00060000
00060000
00060000
000f0000
000f0000
000f0000
00178000
00178000
00178000
0023c000
0023c000
0023c000
0041e000
0041e000
0041e000
0080f000
0080f000
0180f800
01007800
01fff800
03fffc00
02003c00
02003c00
06003e00
04001e00
04001e00
0c001f00
1e001f00
ff80fff0
ENDCHAR
STARTCHAR B
ENCODING 66
SWIDTH 694 0
DWIDTH 29 0
BBX 24 28 0 0
BITMAP
ffffc0
0f00f0
0f0038
0f003c
0f001c
0f001e
0f001e
0f001e
0f001e
0f001c
0f003c
0f0078
0f01f0
0fffe0
0f0078
0f003c
0f001e
0f000e
0f000f
0f000f
0f000f
0f000f
0f000f
0f001e
0f001e
0f003c
0f0078
ffffe0
ENDCHAR
STARTCHAR C
ENCODING 67
SWIDTH 718 0
DWIDTH 30 0
BBX 25 30 0 -1
BITMAP
001f8080
00e06180
01801980
07000780
0e000380
1c000380
1c000180
38000180
78000080
78000080
70000080
f0000000
f0000000
f0000000
f0000000
f0000000
f0000000
f0000000
f0000000
70000080
78000080
78000080
38000080
1c000100
1c000100
0e000200
07000400
01800800
00e03000
001fc000
ENDCHAR
STARTCHAR D
ENCODING 68
SWIDTH 766 0
DWIDTH 32 0
BBX 27 28 0 0
BITMAP
ffffc000
0f00f000
0f003c00
0f000e00
0f000700
0f000700
0f000380
0f0003c0
0f0001c0
0f0001c0
0f0001e0
0f0001e0
0f0001e0
0f0001e0
0f0001e0
0f0001e0
0f0001e0
0f0001e0
0f0001c0
0f0001c0
0f0003c0
0f000380
0f000780
0f000700
0f000e00
0f001c00
0f007000
ffffc000
ENDCHAR
STARTCHAR E
ENCODING 69
SWIDTH 670 0
DWIDTH 28 0
BBX 24 28 0 0
BITMAP
fffffc
0f003c
0f000c
0f0004
0f0004
0f0006
0f0002
0f0002
0f0202
0f0200
0f0200
0f0200
0f0600
0ffe00
0f0600
0f0200
0f0200
0f0200
0f0201
0f0001
0f0002
0f0002
0f0002
0f0006
0f0006
0f000c
0f003c
fffffc
ENDCHAR
STARTCHAR F
ENCODING 70
SWIDTH 646 0
DWIDTH 27 0
BBX 22 28 0 0
BITMAP
fffff8
0f0078
0f0018
0f0008
0f0008
0f000c
0f0004
0f0004
0f0204
0f0200
0f0200
0f0200
0f0600
0ffe00
0f0600
0f0200
0f0200
0f0200
0f0200
0f0000
0f0000
0f0000
0f0000
0f0000
0f0000
0f0000
0f8000
fff800
ENDCHAR
STARTCHAR G
ENCODING 71
SWIDTH 790 0
DWIDTH 33 0
BBX 28 30 0 -1
BITMAP
001f8080
00e06180
01801980
07000780
0e000380
1c000380
1c000180
38000180
78000080
78000080
70000080
f0000000
f0000000
f0000000
f0000000
f0000000
f0000000
f000fff0
f0000f80
70000780
78000780
78000780
38000780
1c000780
1c000780
0e000780
07000b80
01801180
00e06080
001f8000
ENDCHAR
STARTCHAR H
ENCODING 72
SWIDTH 742 0
DWIDTH 31 0
BBX 26 28 0 0
BITMAP
fff3ffc0
0f003c00
0f003c00
0f003c00
0f003c00
0f003c00
0f003c00
0f003c00
0f003c00
0f003c00
0f003c00
0f003c00
0f003c00
0ffffc00
0f003c00
0f003c00
0f003c00
0f003c00
0f003c00
0f003c00
0f003c00
0f003c00
0f003c00
0f003c00
0f003c00
0f003c00
0f003c00
fff3ffc0
ENDCHAR
STARTCHAR I
ENCODING 73
SWIDTH 359 0
DWIDTH 15 0
BBX 12 28 0 0
BITMAP
fff0
0f00
0f00
0f00
0f00
0f00
0f00
0f00
0f00
0f00
0f00
0f00
0f00
0f00
0f00
0f00
0f00
0f00
0f00
0f00
0f00
0f00
0f00
0f00
0f00
0f00
0f00
fff0
ENDCHAR
STARTCHAR J
ENCODING 74
SWIDTH 503 0
DWIDTH 21 0
BBX 16 29 0 -1
BITMAP
1fff
00f8
0078
0078
0078
0078
0078
0078
0078
0078
0078
0078
0078
0078
0078
0078
0078
0078
0078
0078
0078
7078
f878
f878
f878
f0f0
40e0
21c0
1f00
ENDCHAR
STARTCHAR K
ENCODING 75
SWIDTH 766 0
DWIDTH 32 0
BBX 28 28 0 0
BITMAP
fff03fe0
0f000f00
0f000c00
0f000800
0f001000
0f002000
0f004000
0f008000
0f010000
0f020000
0f040000
0f0e0000
0f1f0000
0f2f0000
0f278000
0f478000
0f83c000
0f01e000
0f01e000
0f00f000
0f00f800
0f007800
0f003c00
0f003c00
0f001e00
0f001f00
0f001f80
fff07ff0
ENDCHAR
STARTCHAR L
ENCODING 76
SWIDTH 622 0
DWIDTH 26 0
BBX 21 28 0 0
BITMAP
fff800
0f8000
0f0000
0f0000
0f0000
0f0000
0f0000
0f0000
0f0000
0f0000
0f0000
0f0000
0f0000
0f0000
0f0000
0f0000
0f0000
0f0000
0f0008
0f0008
0f0008
0f0018
0f0018
0f0010
0f0030
0f0070
0f01f0
fffff0
ENDCHAR
STARTCHAR M
ENCODING 77
SWIDTH 910 0
DWIDTH 38 0
BBX 33 28 0 0
BITMAP
ff8000ff80
0f8000f800
0f8000f800
0bc0017800
0bc0017800
0bc0017800
09e0027800
09e0027800
08f0047800
08f0047800
08f0047800
0878087800
0878087800
0878087800
083c107800
083c107800
083c107800
081e207800
081e207800
081e207800
080f407800
080f407800
0807807800
0807807800
0807807800
0803007800
1c03007800
ff8307ff80
ENDCHAR
STARTCHAR N
ENCODING 78
SWIDTH 742 0
DWIDTH 31 0
BBX 26 28 0 0
BITMAP
ff007fc0
0f800e00
0f800400
0bc00400
09e00400
09e00400
08f00400
08f80400
08780400
083c0400
083c0400
081e0400
080f0400
080f0400
08078400
0807c400
0803c400
0801e400
0801e400
0800f400
08007c00
08007c00
08003c00
08003c00
08001c00
08000c00
1c000c00
ff800400
ENDCHAR
STARTCHAR O
ENCODING 79
SWIDTH 766 0
DWIDTH 32 0
BBX 27 30 0 -1
BITMAP
003f8000
00e0e000
03803800
07001c00
0e000e00
1c000700
3c000780
38000380
780003c0
780003c0
700001c0
f00001e0
f00001e0
f00001e0
f00001e0
f00001e0
f00001e0
f00001e0
f00001e0
700001c0
780003c0
780003c0
38000380
3c000780
1c000700
0e000e00
07001c00
03803800
00e0e000
003f8000
ENDCHAR
STARTCHAR P
ENCODING 80
SWIDTH 670 0
DWIDTH 28 0
BBX 23 28 0 0
BITMAP
ffff80
0f00e0
0f0078
0f003c
0f001c
0f001e
0f001e
0f001e
0f001e
0f001e
0f001c
0f003c
0f0078
0f00e0
0fff80
0f0000
0f0000
0f0000
0f0000
0f0000
0f0000
0f0000
0f0000
0f0000
0f0000
0f0000
0f0000
fff000
ENDCHAR
STARTCHAR Q
ENCODING 81
SWIDTH 766 0
DWIDTH 32 0
BBX 27 37 0 -8
BITMAP
003f8000
00e0e000
03803800
07001c00
0e000e00
1c000700
3c000780
38000380
780003c0
780003c0
700001c0
f00001e0
f00001e0
f00001e0
f00001e0
f00001e0
f00001e0
f00001e0
f00001e0
700001c0
780003c0
780003c0
38000380
3c0e0780
1c110700
0e208e00
0720dc00
03a0f800
00f0e020
003fe020
00006020
00007060
000078e0
00003fc0
00003fc0
00001f80
00000f00
ENDCHAR
STARTCHAR R
ENCODING 82
SWIDTH 742 0
DWIDTH 31 0
BBX 28 29 0 -1
BITMAP
ffff0000
0f01e000
0f007800
0f003c00
0f001c00
0f001e00
0f001e00
0f001e00
0f001e00
0f001c00
0f003c00
0f007800
0f01e000
0fff0000
0f03c000
0f00e000
0f00f000
0f007800
0f007800
0f007800
0f007800
0f007800
0f007800
0f007810
0f007810
0f003810
0f003c20
fff01c20
000007c0
ENDCHAR
STARTCHAR S
ENCODING 83
SWIDTH 551 0
DWIDTH 23 0
BBX 18 30 0 -1
BITMAP
07e080
1c1980
300580
700380
600180
e00180
e00080
e00080
e00080
f00000
f80000
7c0000
7fc000
3ff800
1ffe00
07ff00
00ff80
000f80
0007c0
0003c0
0001c0
8001c0
8001c0
8001c0
c00180
c00180
e00300
d00200
cc0c00
83f800
ENDCHAR
STARTCHAR T
ENCODING 84
SWIDTH 718 0
DWIDTH 30 0
BBX 27 28 0 0
BITMAP
7fffffc0
700f01c0
600f00c0
400f0040
400f0040
c00f0020
800f0020
800f0020
800f0020
000f0000
000f0000
000f0000
000f0000
000f0000
000f0000
000f0000
000f0000
000f0000
000f0000
000f0000
000f0000
000f0000
000f0000
000f0000
000f0000
000f0000
001f8000
03fffc00
ENDCHAR
STARTCHAR U
ENCODING 85
SWIDTH 742 0
DWIDTH 31 0
BBX 26 29 0 -1
BITMAP
fff07fc0
0f000e00
0f000400
0f000400
0f000400
0f000400
0f000400
0f000400
0f000400
0f000400
0f000400
0f000400
0f000400
0f000400
0f000400
0f000400
0f000400
0f000400
0f000400
0f000400
0f000400
0f000400
07000800
07800800
03801000
01801000
00c02000
0070c000
001f0000
ENDCHAR
STARTCHAR V
ENCODING 86
SWIDTH 742 0
DWIDTH 31 0
BBX 28 29 0 -1
BITMAP
ffe00ff0
1f0003c0
0f000180
0f000100
0f800300
07800200
07800200
03c00400
03c00400
03c00400
01e00800
01e00800
01f00800
00f01000
00f01000
00f83000
00782000
00782000
003c4000
003c4000
003c4000
001e8000
001e8000
001f8000
000f0000
000f0000
00060000
00060000
00060000
ENDCHAR
STARTCHAR W
ENCODING 87
SWIDTH 1030 0
DWIDTH 43 0
BBX 40 29 0 -1
BITMAP
ffe0ffe0ff
1f001f003c
1e001e0018
0f001f0010
0f001f0010
0f001f0010
07801f0020
0780278020
0780278020
03c0278040
03c043c040
03c043c040
03e043c040
01e081e080
01e081e080
01e081e080
00f100f100
00f100f100
00f100f100
007900fa00
007a007a00
007a007a00
003e007c00
003c003c00
003c003c00
003c003c00
0018001800
0018001800
0018001800
ENDCHAR
STARTCHAR X
ENCODING 88
SWIDTH 742 0
DWIDTH 31 0
BBX 28 28 0 0
BITMAP
7ff0ffc0
0fc03e00
07801800
03c01800
03e01000
01e02000
01f06000
00f04000
00788000
007d8000
003d0000
001e0000
001f0000
000f0000
000f8000
000f8000
0013c000
0023e000
0021e000
0041f000
00c0f800
00807800
01007c00
03003c00
02001e00
06001f00
1f003f80
ffc0fff0
ENDCHAR
STARTCHAR Y
ENCODING 89
SWIDTH 742 0
DWIDTH 31 0
BBX 30 28 0 0
BITMAP
fff007fc
0f8001e0
07800080
07c00180
03c00100
03e00200
01f00200
00f00400
00f80400
00780800
007c1800
003c1000
001e2000
001f2000
000f4000
000fc000
00078000
00078000
00078000
00078000
00078000
00078000
00078000
00078000
00078000
00078000
00078000
007ff800
ENDCHAR
STARTCHAR Z
ENCODING 90
SWIDTH 599 0
DWIDTH 25 0
BBX 20 28 0 0
BITMAP
7ffff0
7c01f0
7001e0
6003c0
6003c0
400780
400f80
400f00
401e00
001e00
003c00
007c00
007800
00f000
00f000
01e000
03e000
03c010
078010
078010
0f0010
1f0030
1e0020
3c0020
3c0060
7800e0
f803e0
ffffe0
ENDCHAR
STARTCHAR bracketleft
ENCODING 91
SWIDTH 287 0
DWIDTH 12 0
BBX 7 41 0 -10
BITMAP
fe
fe
c0
c0
c0
c0
c0
c0
c0
c0
c0
c0
c0
c0
c0
c0
c0
c0
c0
c0
c0
c0
c0
c0
c0
c0
c0
c0
c0
c0
c0
c0
c0
c0
c0
c0
c0
c0
c0
fe
fe
ENDCHAR
STARTCHAR backslash
ENCODING 92
SWIDTH 503 0
DWIDTH 21 0
BBX 16 41 0 -10
BITMAP
8000
c000
6000
6000
6000
3000
3000
3000
1800
1800
1800
0c00
0c00
0c00
0600
0600
0300
0300
0300
0180
0180
0180
00c0
00c0
00c0
0060
0060
0030
0030
0030
0018
0018
0018
000c
000c
000c
0006
0006
0006
0003
0003
ENDCHAR
STARTCHAR bracketright
ENCODING 93
SWIDTH 287 0
DWIDTH 12 0
BBX 7 41 0 -10
BITMAP
fe
fe
06
06
06
06
06
06
06
06
06
06
06
06
06
06
06
06
06
06
06
06
06
06
06
06
06
06
06
06
06
06
06
06
06
06
06
06
06
fe
fe
ENDCHAR
STARTCHAR circumflex
ENCODING 94
SWIDTH 503 0
DWIDTH 21 0
BBX 10 5 0 23
BITMAP
0c00
1200
2100
4080
8040
ENDCHAR
STARTCHAR lowline
ENCODING 95
SWIDTH 287 0
DWIDTH 32 0
BBX 32 2 0 -10
BITMAP
ffffffff
ffffffff
ENDCHAR
STARTCHAR leftquote
ENCODING 96
SWIDTH 287 0
DWIDTH 12 0
BBX 5 12 0 17
BITMAP
08
10
20
40
40
80
80
80
b0
f8
78
30
ENDCHAR
STARTCHAR a
ENCODING 97
SWIDTH 503 0
DWIDTH 21 0
BBX 18 18 0 0
BITMAP
1fc000
307000
783800
781c00
301c00
001c00
001c00
01fc00
0f1c00
381c00
701c00
601c00
e01c40
e01c40
e01c40
603c40
304e80
1f8700
ENDCHAR
STARTCHAR b
ENCODING 98
SWIDTH 551 0
DWIDTH 23 0
BBX 19 29 0 0
BITMAP
fc0000
1c0000
1c0000
1c0000
1c0000
1c0000
1c0000
1c0000
1c0000
1c0000
1c0000
1c7c00
1d8600
1e0300
1c0180
1c01c0
1c00c0
1c00e0
1c00e0
1c00e0
1c00e0
1c00e0
1c00e0
1c00c0
1c01c0
1c0180
1e0300
190600
10f800
ENDCHAR
STARTCHAR c
ENCODING 99
SWIDTH 431 0
DWIDTH 18 0
BBX 14 18 0 0
BITMAP
07e0
0c30
1878
3078
7030
6000
e000
e000
e000
e000
e000
e000
6000
7004
3004
1808
0c30
07c0
ENDCHAR
STARTCHAR d
ENCODING 100
SWIDTH 551 0
DWIDTH 23 0
BBX 19 29 0 0
BITMAP
003f00
000700
000700
000700
000700
000700
000700
000700
000700
000700
000700
03e700
0c1700
180f00
300700
700700
600700
e00700
e00700
e00700
e00700
e00700
e00700
600700
700700
300700
180f00
0c3700
07c7e0
ENDCHAR
STARTCHAR e
ENCODING 101
SWIDTH 431 0
DWIDTH 18 0
BBX 15 18 0 0
BITMAP
03e0
0c30
1818
300c
700e
6006
e006
fffe
e000
e000
e000
e000
6000
7002
3002
1804
0c18
03e0
ENDCHAR
STARTCHAR f
ENCODING 102
SWIDTH 311 0
DWIDTH 13 0
BBX 15 29 0 0
BITMAP
00f8
018c
071e
061e
0e0c
0e00
0e00
0e00
0e00
0e00
0e00
ffe0
0e00
0e00
0e00
0e00
0e00
0e00
0e00
0e00
0e00
0e00
0e00
0e00
0e00
0e00
0e00
0e00
7fe0
ENDCHAR
STARTCHAR g
ENCODING 103
SWIDTH 503 0
DWIDTH 21 0
BBX 18 28 0 -9
BITMAP
000380
03c4c0
0c38c0
1c3880
181800
381c00
381c00
381c00
381c00
181800
1c3800
0c3000
13c000
100000
300000
180000
1ff800
1fff00
1fff80
300380
6001c0
c000c0
c000c0
c000c0
600180
300300
1c0e00
07f800
ENDCHAR
STARTCHAR h
ENCODING 104
SWIDTH 551 0
DWIDTH 23 0
BBX 20 29 0 0
BITMAP
fc0000
1c0000
1c0000
1c0000
1c0000
1c0000
1c0000
1c0000
1c0000
1c0000
1c0000
1c7c00
1c8700
1d0300
1e0380
1c0380
1c0380
1c0380
1c0380
1c0380
1c0380
1c0380
1c0380
1c0380
1c0380
1c0380
1c0380
1c0380
ff9ff0
ENDCHAR
STARTCHAR i
ENCODING 105
SWIDTH 287 0
DWIDTH 12 0
BBX 9 29 0 0
BITMAP
1800
3c00
3c00
1800
0000
0000
0000
0000
0000
0000
0000
fc00
1c00
1c00
1c00
1c00
1c00
1c00
1c00
1c00
1c00
1c00
1c00
1c00
1c00
1c00
1c00
1c00
ff80
ENDCHAR
STARTCHAR j
ENCODING 106
SWIDTH 311 0
DWIDTH 13 0
BBX 11 37 0 -8
BITMAP
00c0
01e0
01e0
00c0
0000
0000
0000
0000
0000
0000
0000
0fe0
00e0
00e0
00e0
00e0
00e0
00e0
00e0
00e0
00e0
00e0
00e0
00e0
00e0
00e0
00e0
00e0
00e0
00e0
00e0
00e0
60e0
f0c0
f1c0
6180
3e00
ENDCHAR
STARTCHAR k
ENCODING 107
SWIDTH 527 0
DWIDTH 22 0
BBX 19 29 0 0
BITMAP
fc0000
1c0000
1c0000
1c0000
1c0000
1c0000
1c0000
1c0000
1c0000
1c0000
1c0000
1c3fc0
1c0f00
1c0c00
1c0800
1c1000
1c2000
1c4000
1ce000
1de000
1e7000
1c7800
1c3800
1c3c00
1c1c00
1c0e00
1c0f00
1c0f80
ff9fe0
ENDCHAR
STARTCHAR l
ENCODING 108
SWIDTH 287 0
DWIDTH 12 0
BBX 9 29 0 0
BITMAP
fc00
1c00
1c00
1c00
1c00
1c00
1c00
1c00
1c00
1c00
1c00
1c00
1c00
1c00
1c00
1c00
1c00
1c00
1c00
1c00
1c00
1c00
1c00
1c00
1c00
1c00
1c00
1c00
ff80
ENDCHAR
STARTCHAR m
ENCODING 109
SWIDTH 862 0
DWIDTH 36 0
BBX 33 18 0 0
BITMAP
fc7e07e000
1c83883800
1d01901800
1e01e01c00
1c01c01c00
1c01c01c00
1c01c01c00
1c01c01c00
1c01c01c00
1c01c01c00
1c01c01c00
1c01c01c00
1c01c01c00
1c01c01c00
1c01c01c00
1c01c01c00
1c01c01c00
ff8ff8ff80
ENDCHAR
STARTCHAR n
ENCODING 110
SWIDTH 551 0
DWIDTH 23 0
BBX 20 18 0 0
BITMAP
fc7c00
1c8700
1d0300
1e0380
1c0380
1c0380
1c0380
1c0380
1c0380
1c0380
1c0380
1c0380
1c0380
1c0380
1c0380
1c0380
1c0380
ff9ff0
ENDCHAR
STARTCHAR o
ENCODING 111
SWIDTH 503 0
DWIDTH 21 0
BBX 18 18 0 0
BITMAP
03f000
0e1c00
180600
300300
700380
600180
e001c0
e001c0
e001c0
e001c0
e001c0
e001c0
600180
700380
300300
180600
0e1c00
03f000
ENDCHAR
STARTCHAR p
ENCODING 112
SWIDTH 551 0
DWIDTH 23 0
BBX 19 26 0 -8
BITMAP
fc7c00
1d8600
1e0300
1c0180
1c01c0
1c00c0
1c00e0
1c00e0
1c00e0
1c00e0
1c00e0
1c00e0
1c01c0
1c01c0
1c0180
1e0300
1d0600
1cf800
1c0000
1c0000
1c0000
1c0000
1c0000
1c0000
1c0000
ff8000
ENDCHAR
STARTCHAR q
ENCODING 113
SWIDTH 527 0
DWIDTH 22 0
BBX 19 26 0 -8
BITMAP
03c100
0c3300
180b00
300f00
700700
700700
e00700
e00700
e00700
e00700
e00700
e00700
600700
700700
300f00
180f00
0c3700
07c700
000700
000700
000700
000700
000700
000700
000700
003fe0
ENDCHAR
STARTCHAR r
ENCODING 114
SWIDTH 383 0
DWIDTH 16 0
BBX 13 18 0 0
BITMAP
fce0
1d30
1e78
1e78
1c30
1c00
1c00
1c00
1c00
1c00
1c00
1c00
1c00
1c00
1c00
1c00
1c00
ffc0
ENDCHAR
STARTCHAR s
ENCODING 115
SWIDTH 383 0
DWIDTH 16 0
BBX 13 18 0 0
BITMAP
1f90
3070
4030
c010
c010
e010
f800
7f80
3fe0
0ff0
00f8
8038
8018
c018
c018
e010
d060
8fc0
ENDCHAR
STARTCHAR t
ENCODING 116
SWIDTH 383 0
DWIDTH 16 0
BBX 12 26 0 0
BITMAP
0400
0400
0400
0400
0c00
0c00
1c00
3c00
ffe0
1c00
1c00
1c00
1c00
1c00
1c00
1c00
1c00
1c00
1c10
1c10
1c10
1c10
1c10
0c10
0e20
03c0
ENDCHAR
STARTCHAR u
ENCODING 117
SWIDTH 551 0
DWIDTH 23 0
BBX 20 18 0 0
BITMAP
fc1f80
1c0380
1c0380
1c0380
1c0380
1c0380
1c0380
1c0380
1c0380
1c0380
1c0380
1c0380
1c0380
1c0380
1c0780
0c0780
0e1b80
03e3f0
ENDCHAR
STARTCHAR v
ENCODING 118
SWIDTH 527 0
DWIDTH 22 0
BBX 19 18 0 0
BITMAP
ff07e0
3c0380
1c0100
1c0100
0e0200
0e0200
070400
070400
070400
038800
038800
03d800
01d000
01d000
00e000
00e000
00e000
004000
ENDCHAR
STARTCHAR w
ENCODING 119
SWIDTH 718 0
DWIDTH 30 0
BBX 27 18 0 0
BITMAP
ff3fcfe0
3c0f0380
1c070180
1c070100
1c0b0100
0e0b8200
0e0b8200
0e118200
0711c400
0711c400
0720c400
03a0e800
03a0e800
03c06800
01c07000
01c07000
01803000
00802000
ENDCHAR
STARTCHAR x
ENCODING 120
SWIDTH 527 0
DWIDTH 22 0
BBX 21 18 0 0
BITMAP
7f8ff0
0f0380
0f0300
070200
038400
01c800
01d800
00f000
007000
007800
00f800
009c00
010e00
020e00
060700
040380
1e07c0
ff0ff8
ENDCHAR
STARTCHAR y
ENCODING 121
SWIDTH 527 0
DWIDTH 22 0
BBX 19 26 0 -8
BITMAP
ff07e0
3c0380
1c0100
1c0100
0e0200
0e0200
070400
070400
070400
038800
038800
03d800
01d000
01d000
00e000
00e000
00e000
004000
004000
008000
008000
f08000
f10000
f30000
660000
3c0000
ENDCHAR
STARTCHAR z
ENCODING 122
SWIDTH 431 0
DWIDTH 18 0
BBX 14 18 0 0
BITMAP
7ffc
7038
6038
4070
40f0
40e0
41c0
03c0
0380
0700
0f04
0e04
1c04
3c0c
3808
7008
7038
fff8
ENDCHAR
STARTCHAR curlyleft
ENCODING 123
SWIDTH 287 0
DWIDTH 14 0
BBX 9 41 0 -10
BITMAP
0380
0f80
0e00
1c00
1800
1800
1800
1800
1800
1800
1800
1800
1800
1800
1800
3800
3000
7000
6000
e000
6000
7000
3000
3800
1800
1800
1800
1800
1800
1800
1800
1800
1800
1800
1800
1800
1800
1c00
0e00
0f80
0380
ENDCHAR
STARTCHAR pipe
ENCODING 124
SWIDTH 287 0
DWIDTH 6 0
BBX 2 41 0 -10
BITMAP
c0
c0
c0
c0
c0
c0
c0
c0
c0
c0
c0
c0
c0
c0
c0
c0
c0
c0
c0
c0
c0
c0
c0
c0
c0
c0
c0
c0
c0
c0
c0
c0
c0
c0
c0
c0
c0
c0
c0
c0
c0
ENDCHAR
STARTCHAR curlyright
ENCODING 125
SWIDTH 287 0
DWIDTH 14 0
BBX 9 41 0 -10
BITMAP
f000
fc00
1c00
0e00
0600
0600
0600
0600
0600
0600
0600
0600
0600
0600
0700
0700
0300
0380
0180
0180
0180
0380
0300
0700
0700
0600
0600
0600
0600
0600
0600
0600
0600
0600
0600
0600
0600
0e00
1c00
fc00
f000
ENDCHAR
STARTCHAR hungarumlaut
ENCODING 126
SWIDTH 503 0
DWIDTH 21 0
BBX 14 4 0 24
BITMAP
1c04
3f08
43f0
80e0
ENDCHAR
STARTCHAR dieresis
ENCODING 127
SWIDTH 503 0
DWIDTH 21 0
BBX 12 4 0 25
BITMAP
6060
f0f0
f0f0
6060
ENDCHAR
ENDFONT
